<svg xmlns="http://www.w3.org/2000/svg" width="1020" height="420" viewBox="0 0 1020 420">
  <rect width="100%" height="100%" fill="#f8fafc"/>
  <text x="32" y="42" font-size="26" font-weight="800" fill="#0f172a">Regulated Banking Data & AI Monitoring Platform</text>
  <defs><marker id="arrow" markerWidth="10" markerHeight="10" refX="8" refY="3" orient="auto"><path d="M0,0 L0,6 L9,3 z" fill="#334155"/></marker></defs>
    <rect x="40" y="90" width="180" height="100" rx="12" fill="#ffffff" stroke="#1f2937" stroke-width="1.5"/>
    <text x="56" y="118" font-size="16" font-weight="700" fill="#111827">Data files</text>
    <text x="56" y="142" font-size="12" fill="#374151">CSV · JSONL · XML</text>
    <path d="M220 140 L270 140" stroke="#334155" stroke-width="2" marker-end="url(#arrow)"/>
    <rect x="280" y="90" width="190" height="100" rx="12" fill="#ffffff" stroke="#1f2937" stroke-width="1.5"/>
    <text x="296" y="118" font-size="16" font-weight="700" fill="#111827">Python checks</text>
    <text x="296" y="142" font-size="12" fill="#374151">quality · schemas</text>
    <path d="M470 140 L520 140" stroke="#334155" stroke-width="2" marker-end="url(#arrow)"/>
    <rect x="530" y="90" width="190" height="100" rx="12" fill="#ffffff" stroke="#1f2937" stroke-width="1.5"/>
    <text x="546" y="118" font-size="16" font-weight="700" fill="#111827">PostgreSQL</text>
    <text x="546" y="142" font-size="12" fill="#374151">SQL · JSONB</text>
    <path d="M720 140 L770 140" stroke="#334155" stroke-width="2" marker-end="url(#arrow)"/>
    <rect x="780" y="90" width="190" height="100" rx="12" fill="#ffffff" stroke="#1f2937" stroke-width="1.5"/>
    <text x="796" y="118" font-size="16" font-weight="700" fill="#111827">API contracts</text>
    <text x="796" y="142" font-size="12" fill="#374151">OpenAPI · Proto</text>

    <rect x="160" y="260" width="210" height="100" rx="12" fill="#ffffff" stroke="#1f2937" stroke-width="1.5"/>
    <text x="176" y="288" font-size="16" font-weight="700" fill="#111827">MLOps</text>
    <text x="176" y="312" font-size="12" fill="#374151">MLmodel · cards</text>

    <rect x="430" y="260" width="210" height="100" rx="12" fill="#ffffff" stroke="#1f2937" stroke-width="1.5"/>
    <text x="446" y="288" font-size="16" font-weight="700" fill="#111827">Observability</text>
    <text x="446" y="312" font-size="12" fill="#374151">logs · alerts</text>

    <rect x="700" y="260" width="210" height="100" rx="12" fill="#ffffff" stroke="#1f2937" stroke-width="1.5"/>
    <text x="716" y="288" font-size="16" font-weight="700" fill="#111827">Governance</text>
    <text x="716" y="312" font-size="12" fill="#374151">risk · controls</text>

</svg>
