<svg xmlns="http://www.w3.org/2000/svg" width="1000" height="420" viewBox="0 0 1000 420">
  <rect width="100%" height="100%" fill="#f8fafc"/>
  <text x="32" y="42" font-size="26" font-weight="800" fill="#0f172a">Synthetic data quality dashboard</text>

    <rect x="50" y="90" width="180" height="90" rx="12" fill="#ecfeff" stroke="#1f2937" stroke-width="1.5"/>
    <text x="66" y="118" font-size="16" font-weight="700" fill="#111827">Rows checked</text>
    <text x="66" y="142" font-size="12" fill="#374151">6</text>

    <rect x="270" y="90" width="180" height="90" rx="12" fill="#fef2f2" stroke="#1f2937" stroke-width="1.5"/>
    <text x="286" y="118" font-size="16" font-weight="700" fill="#111827">Duplicates</text>
    <text x="286" y="142" font-size="12" fill="#374151">1</text>

    <rect x="490" y="90" width="180" height="90" rx="12" fill="#fff7ed" stroke="#1f2937" stroke-width="1.5"/>
    <text x="506" y="118" font-size="16" font-weight="700" fill="#111827">Negative amounts</text>
    <text x="506" y="142" font-size="12" fill="#374151">1</text>

    <rect x="710" y="90" width="180" height="90" rx="12" fill="#fef2f2" stroke="#1f2937" stroke-width="1.5"/>
    <text x="726" y="118" font-size="16" font-weight="700" fill="#111827">Invalid currency</text>
    <text x="726" y="142" font-size="12" fill="#374151">1</text>

    <rect x="160" y="250" width="260" height="90" rx="12" fill="#f0fdf4" stroke="#1f2937" stroke-width="1.5"/>
    <text x="176" y="278" font-size="16" font-weight="700" fill="#111827">Quality score</text>
    <text x="176" y="302" font-size="12" fill="#374151">88.89%</text>

    <rect x="520" y="250" width="300" height="90" rx="12" fill="#fefce8" stroke="#1f2937" stroke-width="1.5"/>
    <text x="536" y="278" font-size="16" font-weight="700" fill="#111827">Status</text>
    <text x="536" y="302" font-size="12" fill="#374151">quality_review_required</text>

</svg>
