<svg xmlns="http://www.w3.org/2000/svg" width="1060" height="410" viewBox="0 0 1060 410">
  <rect width="100%" height="100%" fill="#f8fafc"/>
  <text x="32" y="42" font-size="26" font-weight="800" fill="#0f172a">File format map</text>

    <rect x="40" y="90" width="220" height="100" rx="12" fill="#ffffff" stroke="#1f2937" stroke-width="1.5"/>
    <text x="56" y="118" font-size="16" font-weight="700" fill="#111827">Data</text>
    <text x="56" y="142" font-size="12" fill="#374151">CSV · JSON · JSONL · Parquet</text>

    <rect x="290" y="90" width="220" height="100" rx="12" fill="#ffffff" stroke="#1f2937" stroke-width="1.5"/>
    <text x="306" y="118" font-size="16" font-weight="700" fill="#111827">Database</text>
    <text x="306" y="142" font-size="12" fill="#374151">SQL · JSONB · BSON · Cypher</text>

    <rect x="540" y="90" width="220" height="100" rx="12" fill="#ffffff" stroke="#1f2937" stroke-width="1.5"/>
    <text x="556" y="118" font-size="16" font-weight="700" fill="#111827">API</text>
    <text x="556" y="142" font-size="12" fill="#374151">OpenAPI · Proto · GraphQL</text>

    <rect x="790" y="90" width="220" height="100" rx="12" fill="#ffffff" stroke="#1f2937" stroke-width="1.5"/>
    <text x="806" y="118" font-size="16" font-weight="700" fill="#111827">MLOps</text>
    <text x="806" y="142" font-size="12" fill="#374151">MLmodel · ONNX · safetensors</text>

    <rect x="160" y="250" width="220" height="100" rx="12" fill="#ffffff" stroke="#1f2937" stroke-width="1.5"/>
    <text x="176" y="278" font-size="16" font-weight="700" fill="#111827">DevOps</text>
    <text x="176" y="302" font-size="12" fill="#374151">Dockerfile · TF · YAML</text>

    <rect x="410" y="250" width="220" height="100" rx="12" fill="#ffffff" stroke="#1f2937" stroke-width="1.5"/>
    <text x="426" y="278" font-size="16" font-weight="700" fill="#111827">Security</text>
    <text x="426" y="302" font-size="12" fill="#374151">SARIF · SBOM · Rego</text>

    <rect x="660" y="250" width="220" height="100" rx="12" fill="#ffffff" stroke="#1f2937" stroke-width="1.5"/>
    <text x="676" y="278" font-size="16" font-weight="700" fill="#111827">Docs</text>
    <text x="676" y="302" font-size="12" fill="#374151">MD · SVG · IPYNB · HTML</text>

</svg>
