<svg xmlns="http://www.w3.org/2000/svg" width="1000" height="420" viewBox="0 0 1000 420">
  <rect width="100%" height="100%" fill="#f8fafc"/>
  <text x="32" y="42" font-size="26" font-weight="800" fill="#0f172a">Governance controls</text>

    <rect x="50" y="90" width="210" height="90" rx="12" fill="#ffffff" stroke="#1f2937" stroke-width="1.5"/>
    <text x="66" y="118" font-size="16" font-weight="700" fill="#111827">Data quality</text>
    <text x="66" y="142" font-size="12" fill="#374151">required checks</text>

    <rect x="290" y="90" width="210" height="90" rx="12" fill="#ffffff" stroke="#1f2937" stroke-width="1.5"/>
    <text x="306" y="118" font-size="16" font-weight="700" fill="#111827">Privacy</text>
    <text x="306" y="142" font-size="12" fill="#374151">synthetic data only</text>

    <rect x="530" y="90" width="210" height="90" rx="12" fill="#ffffff" stroke="#1f2937" stroke-width="1.5"/>
    <text x="546" y="118" font-size="16" font-weight="700" fill="#111827">Explainability</text>
    <text x="546" y="142" font-size="12" fill="#374151">model card</text>

    <rect x="770" y="90" width="180" height="90" rx="12" fill="#ffffff" stroke="#1f2937" stroke-width="1.5"/>
    <text x="786" y="118" font-size="16" font-weight="700" fill="#111827">Human review</text>
    <text x="786" y="142" font-size="12" fill="#374151">review path</text>

    <rect x="220" y="250" width="230" height="90" rx="12" fill="#ffffff" stroke="#1f2937" stroke-width="1.5"/>
    <text x="236" y="278" font-size="16" font-weight="700" fill="#111827">Audit trail</text>
    <text x="236" y="302" font-size="12" fill="#374151">JSONL events</text>

    <rect x="540" y="250" width="230" height="90" rx="12" fill="#ffffff" stroke="#1f2937" stroke-width="1.5"/>
    <text x="556" y="278" font-size="16" font-weight="700" fill="#111827">Policy as code</text>
    <text x="556" y="302" font-size="12" fill="#374151">OPA/Rego</text>

</svg>
