<svg xmlns="http://www.w3.org/2000/svg" width="1000" height="420" viewBox="0 0 1000 420">
  <rect width="100%" height="100%" fill="#f8fafc"/>
  <text x="32" y="42" font-size="26" font-weight="800" fill="#0f172a">Observability dashboard</text>

    <rect x="50" y="90" width="200" height="90" rx="12" fill="#ffffff" stroke="#1f2937" stroke-width="1.5"/>
    <text x="66" y="118" font-size="16" font-weight="700" fill="#111827">API latency</text>
    <text x="66" y="142" font-size="12" fill="#374151">avg 27 ms</text>

    <rect x="290" y="90" width="200" height="90" rx="12" fill="#ffffff" stroke="#1f2937" stroke-width="1.5"/>
    <text x="306" y="118" font-size="16" font-weight="700" fill="#111827">Prediction count</text>
    <text x="306" y="142" font-size="12" fill="#374151">3 events</text>

    <rect x="530" y="90" width="200" height="90" rx="12" fill="#ffffff" stroke="#1f2937" stroke-width="1.5"/>
    <text x="546" y="118" font-size="16" font-weight="700" fill="#111827">Error rate</text>
    <text x="546" y="142" font-size="12" fill="#374151">synthetic sample</text>

    <rect x="770" y="90" width="180" height="90" rx="12" fill="#ffffff" stroke="#1f2937" stroke-width="1.5"/>
    <text x="786" y="118" font-size="16" font-weight="700" fill="#111827">Drift status</text>
    <text x="786" y="142" font-size="12" fill="#374151">watch</text>

    <rect x="180" y="250" width="250" height="90" rx="12" fill="#ffffff" stroke="#1f2937" stroke-width="1.5"/>
    <text x="196" y="278" font-size="16" font-weight="700" fill="#111827">Logs</text>
    <text x="196" y="302" font-size="12" fill="#374151">JSONL + app.log</text>

    <rect x="560" y="250" width="250" height="90" rx="12" fill="#ffffff" stroke="#1f2937" stroke-width="1.5"/>
    <text x="576" y="278" font-size="16" font-weight="700" fill="#111827">Alerts</text>
    <text x="576" y="302" font-size="12" fill="#374151">Prometheus rules</text>

</svg>
